<svg width="60" height="60" viewBox="0 0 60 60" fill="none" xmlns="http://www.w3.org/2000/svg">
<rect width="40" height="40" transform="translate(10 10)" fill="white"/>
<path d="M48.7489 25.6667L48.75 25.6667C48.8163 25.6667 48.8799 25.6403 48.9268 25.5934C48.9737 25.5466 49 25.483 49 25.4167V12.9167C49 11.8606 48.1394 11 47.0833 11H32.9167C31.8606 11 31 11.8606 31 12.9167V20.4167C31 21.4727 31.8606 22.3333 32.9167 22.3333H42.7407H42.7417V23.3333C43.1529 23.3324 43.5551 23.4543 43.8967 23.6833L48.7489 25.6667ZM48.7489 25.6667C48.7003 25.6667 48.6528 25.6523 48.6125 25.6253L48.6114 25.6246L44.4537 22.8528C44.4533 22.8526 44.453 22.8524 44.4527 22.8521L48.7489 25.6667ZM26.5 20.4167L26.5 20.4203C26.5043 21.5918 26.8299 22.7397 27.4415 23.7389C27.7919 24.3115 28.2286 24.8227 28.7334 25.2558C28.2383 25.5186 27.6779 25.6667 27.0833 25.6667H17.2667C16.6633 25.6667 16.0627 25.8453 15.5651 26.1837L11.3883 28.9587C11.3883 28.9587 11.3883 28.9587 11.3883 28.9587C11.3506 28.9837 11.3069 28.9981 11.2617 29.0002C11.2166 29.0023 11.1717 28.9921 11.1318 28.9708C11.092 28.9494 11.0587 28.9176 11.0354 28.8788L10.1772 29.3921L11.0354 28.8788C11.0122 28.84 11 28.7956 11 28.7504V28.75V16.25C11 15.194 11.8606 14.3333 12.9167 14.3333H26.5L26.5 20.4167Z" stroke="#3173B0" stroke-width="2"/>
<path d="M23.1667 35C23.1667 37.2091 21.3758 39 19.1667 39C16.9575 39 15.1667 37.2091 15.1667 35C15.1667 32.7909 16.9575 31 19.1667 31C21.3758 31 23.1667 32.7909 23.1667 35Z" stroke="#3173B0" stroke-width="2"/>
<path d="M44.8333 35C44.8333 37.2091 43.0425 39 40.8333 39C38.6242 39 36.8333 37.2091 36.8333 35C36.8333 32.7909 38.6242 31 40.8333 31C43.0425 31 44.8333 32.7909 44.8333 35Z" stroke="#3173B0" stroke-width="2"/>
<path d="M12.0505 43.7173C12.7224 43.0453 13.6335 42.6675 14.5838 42.6667H23.7496C24.6998 42.6675 25.6109 43.0453 26.2828 43.7173C26.9548 44.3893 27.3326 45.3005 27.3333 46.2508V48.7501C27.3333 48.8164 27.307 48.88 27.2601 48.9269C27.2132 48.9737 27.1496 49.0001 27.0833 49.0001H11.25C11.1123 49.0001 11 48.8878 11 48.7501V46.2505C11.0008 45.3003 11.3786 44.3892 12.0505 43.7173ZM33.7172 43.7173C34.3891 43.0453 35.3002 42.6675 36.2504 42.6667H45.4163C46.3665 42.6675 47.2776 43.0453 47.9495 43.7173C48.6215 44.3893 48.9993 45.3005 49 46.2508V48.7501C49 48.8164 48.9737 48.88 48.9268 48.9269C48.8799 48.9737 48.8163 49.0001 48.75 49.0001H32.9167C32.779 49.0001 32.6667 48.8878 32.6667 48.7501V46.2508C32.6674 45.3005 33.0452 44.3893 33.7172 43.7173Z" stroke="#3173B0" stroke-width="2"/>
</svg>
