<svg width="60" height="60" viewBox="0 0 60 60" fill="none" xmlns="http://www.w3.org/2000/svg">
<mask id="path-1-inside-1_10_218" fill="white">
<path fill-rule="evenodd" clip-rule="evenodd" d="M19.5645 25.8413C19.5643 25.0132 19.7967 24.2017 20.2353 23.4992C20.674 22.7968 21.3011 22.2318 22.0453 21.8685C22.7895 21.5052 23.6207 21.3583 24.4444 21.4446C25.268 21.5309 26.0508 21.8468 26.7035 22.3564C26.5576 22.8644 26.4834 23.3903 26.4831 23.9189C26.4831 24.1009 26.4916 24.2841 26.5089 24.464C26.5206 24.5861 26.5679 24.7021 26.6451 24.7976C26.7222 24.893 26.8257 24.9636 26.9427 25.0006C27.4027 25.1466 27.8848 25.2715 28.3802 25.3765C28.3967 25.5308 28.4051 25.6858 28.4053 25.841V25.8543C26.9647 26.2456 25.4778 26.4401 23.985 26.4324C22.4922 26.4402 21.0052 26.2457 19.5646 25.8543V25.841L19.5645 25.8413ZM21.9795 18.1653C21.9795 17.7686 22.0971 17.3809 22.3174 17.0511C22.5378 16.7213 22.851 16.4642 23.2174 16.3124C23.5839 16.1606 23.9871 16.1209 24.3761 16.1983C24.7652 16.2756 25.1225 16.4666 25.403 16.7471C25.6835 17.0276 25.8745 17.3849 25.9519 17.7739C26.0293 18.163 25.9895 18.5662 25.8378 18.9326C25.686 19.2991 25.4289 19.6123 25.0991 19.8327C24.7693 20.0531 24.3816 20.1707 23.9849 20.1707C23.4532 20.1703 22.9433 19.9588 22.5673 19.5829C22.1913 19.2069 21.9799 18.697 21.9795 18.1653ZM32.1533 19.4984C30.9813 19.4998 29.8577 19.966 29.029 20.7948C28.2004 21.6236 27.7343 22.7472 27.733 23.9192V23.9324C29.1735 24.3238 30.6605 24.5183 32.1533 24.5105C33.6461 24.5183 35.1331 24.3238 36.5737 23.9324V23.9192C36.5724 22.7472 36.1063 21.6235 35.2776 20.7947C34.4489 19.966 33.3253 19.4997 32.1533 19.4984ZM30.1479 16.2432C30.1479 15.8465 30.2655 15.4588 30.4859 15.129C30.7062 14.7992 31.0194 14.5421 31.3859 14.3903C31.7523 14.2385 32.1556 14.1988 32.5446 14.2762C32.9336 14.3535 33.291 14.5445 33.5715 14.825C33.8519 15.1055 34.0429 15.4628 34.1203 15.8519C34.1977 16.2409 34.158 16.6441 34.0062 17.0106C33.8544 17.377 33.5973 17.6903 33.2675 17.9106C32.9377 18.131 32.5499 18.2486 32.1533 18.2486C31.6216 18.2479 31.1119 18.0364 30.736 17.6605C30.36 17.2845 30.1485 16.7748 30.1479 16.2432ZM40.3221 21.4206C41.4941 21.4219 42.6177 21.8881 43.4463 22.7169C44.275 23.5457 44.741 24.6693 44.7422 25.8413V25.8546C43.3016 26.246 41.8147 26.4405 40.3219 26.4327C38.8292 26.4404 37.3424 26.246 35.9019 25.8546V25.8413C35.9021 25.6862 35.9101 25.5312 35.9258 25.3768C36.422 25.2718 36.9033 25.1469 37.364 25.0009C37.4809 24.9639 37.5843 24.8933 37.6615 24.7979C37.7386 24.7026 37.786 24.5867 37.7978 24.4647C37.8148 24.285 37.8236 24.1016 37.8236 23.9192C37.8234 23.3906 37.7492 22.8647 37.6032 22.3567C38.3792 21.7492 39.3365 21.4197 40.322 21.4209L40.3221 21.4206ZM38.3167 18.1653C38.3166 17.7686 38.4342 17.3808 38.6546 17.0509C38.8749 16.7211 39.1881 16.464 39.5546 16.3121C39.9211 16.1603 40.3244 16.1206 40.7135 16.1979C41.1025 16.2753 41.4599 16.4663 41.7404 16.7468C42.021 17.0273 42.212 17.3847 42.2894 17.7738C42.3668 18.1628 42.327 18.5661 42.1752 18.9326C42.0234 19.2991 41.7663 19.6123 41.4365 19.8327C41.1066 20.0531 40.7188 20.1707 40.3221 20.1707C39.7904 20.1701 39.2807 19.9586 38.9048 19.5826C38.5288 19.2067 38.3173 18.697 38.3167 18.1653ZM18.7734 26.9231C20.3438 27.4203 22.1459 27.6831 23.9852 27.6831C25.8244 27.6831 27.6258 27.4203 29.1957 26.9231C29.3126 26.886 29.416 26.8154 29.4932 26.7201C29.5703 26.6247 29.6177 26.5088 29.6295 26.3868C29.6465 26.2071 29.6553 26.0237 29.6553 25.8413C29.6553 25.7591 29.6532 25.6769 29.6491 25.5947C30.4793 25.7057 31.3159 25.7612 32.1535 25.7609C32.991 25.7612 33.8276 25.7057 34.6577 25.5947C34.6543 25.6769 34.6525 25.7591 34.6521 25.8413C34.6521 26.0226 34.6606 26.2062 34.6779 26.3864C34.6896 26.5085 34.7369 26.6245 34.814 26.7199C34.891 26.8153 34.9945 26.886 35.1114 26.9231C36.6811 27.4203 38.4834 27.6831 40.3224 27.6831C42.1613 27.6831 43.9638 27.4203 45.5333 26.9231C45.6502 26.886 45.7536 26.8154 45.8307 26.7201C45.9078 26.6247 45.9552 26.5088 45.967 26.3868C45.9841 26.2071 45.9929 26.0237 45.9929 25.8413C45.9916 24.7181 45.6573 23.6206 45.0322 22.6875C44.4071 21.7544 43.5193 21.0276 42.4811 20.5991C42.9754 20.1611 43.3248 19.583 43.4828 18.9417C43.6409 18.3004 43.6001 17.6262 43.3659 17.0087C43.1317 16.3911 42.7151 15.8594 42.1716 15.4841C41.6281 15.1089 40.9833 14.9078 40.3228 14.9077C39.6623 14.9076 39.0174 15.1084 38.4738 15.4835C37.9301 15.8585 37.5134 16.3901 37.279 17.0076C37.0446 17.625 37.0035 18.2992 37.1613 18.9406C37.3191 19.5819 37.6683 20.1601 38.1624 20.5983C37.7924 20.7505 37.4396 20.9416 37.1102 21.1686C36.4848 20.0467 35.4989 19.1687 34.3123 18.677C34.8066 18.2389 35.1559 17.6608 35.3139 17.0195C35.4719 16.3782 35.4311 15.7039 35.1968 15.0864C34.9625 14.4688 34.5459 13.9371 34.0023 13.562C33.4587 13.1868 32.8138 12.9858 32.1533 12.9858C31.4928 12.9858 30.848 13.1868 30.3044 13.562C29.7608 13.9371 29.3442 14.4688 29.1099 15.0864C28.8756 15.7039 28.8348 16.3782 28.9927 17.0195C29.1507 17.6608 29.5001 18.2389 29.9944 18.677C28.8082 19.169 27.8227 20.0469 27.1975 21.1686C26.8675 20.9418 26.5144 20.7506 26.1441 20.5983C26.6381 20.1601 26.9872 19.5819 27.1448 18.9406C27.3025 18.2993 27.2614 17.6253 27.027 17.0079C26.7925 16.3905 26.3758 15.859 25.8322 15.4841C25.2886 15.1091 24.6437 14.9084 23.9833 14.9086C23.3229 14.9087 22.6782 15.1098 22.1348 15.485C21.5913 15.8603 21.1749 16.3919 20.9408 17.0094C20.7066 17.6269 20.6658 18.301 20.8239 18.9422C20.9819 19.5835 21.3312 20.1614 21.8255 20.5994C20.7874 21.0281 19.8998 21.7549 19.2749 22.688C18.6499 23.6211 18.3156 24.7186 18.3144 25.8416C18.3144 26.024 18.3233 26.2072 18.3402 26.3871C18.3519 26.5091 18.3991 26.625 18.4761 26.7203C18.5531 26.8157 18.6565 26.8863 18.7733 26.9234L18.7734 26.9231ZM11.7016 35.5637L14.4807 33.6975C14.6891 33.5585 14.944 33.5075 15.1898 33.5558C15.4356 33.6041 15.6523 33.7478 15.7925 33.9554L21.4793 42.4234C21.619 42.6317 21.6703 42.8869 21.622 43.133C21.5736 43.3791 21.4296 43.5959 21.2215 43.7359L18.4421 45.6023C18.2338 45.7419 17.9786 45.7931 17.7326 45.7448C17.4865 45.6964 17.2697 45.5525 17.1296 45.3445L11.4435 36.8757C11.3039 36.6674 11.2526 36.4122 11.301 36.1662C11.3493 35.9201 11.4933 35.7033 11.7013 35.5632L11.7016 35.5637ZM17.809 34.6897L17.7972 34.6982L22.002 40.9593L22.0863 40.89C22.198 40.7991 22.3375 40.7494 22.4815 40.7493H36.4542C37.0484 40.7608 37.6254 40.5506 38.073 40.1597L47.8613 31.9317C48.4761 31.4149 49.0224 30.5141 48.5388 29.6763C48.1034 28.9222 47.1325 28.6685 46.3284 29.0988L37.5692 33.7819C37.4753 34.3884 37.1677 34.9413 36.702 35.3409C36.2362 35.7404 35.643 35.9604 35.0293 35.961H29.1966C29.0308 35.961 28.8718 35.8951 28.7546 35.7779C28.6374 35.6607 28.5716 35.5017 28.5716 35.336C28.5716 35.1702 28.6374 35.0113 28.7546 34.894C28.8718 34.7768 29.0308 34.711 29.1966 34.711H35.0293C35.2034 34.7123 35.3761 34.6792 35.5374 34.6135C35.6986 34.5478 35.8453 34.4508 35.9689 34.3281C36.0925 34.2055 36.1906 34.0596 36.2576 33.8988C36.3245 33.738 36.359 33.5656 36.359 33.3915C36.359 33.2174 36.3245 33.0449 36.2576 32.8842C36.1906 32.7234 36.0925 32.5775 35.9689 32.4549C35.8453 32.3322 35.6986 32.2352 35.5374 32.1695C35.3761 32.1038 35.2034 32.0707 35.0293 32.072H29.1966C29.0589 32.0721 28.9251 32.0268 28.8159 31.943C27.5408 30.9631 25.9382 30.5099 24.3387 30.6769C22.7393 30.844 21.2649 31.6186 20.2199 32.8408C20.195 32.87 20.1675 32.8968 20.1377 32.9208C19.6184 33.3407 18.6988 34.0263 17.809 34.6897ZM16.0918 46.0413L10.405 37.5731C10.081 37.0894 9.96208 36.4969 10.0744 35.9257C10.1868 35.3545 10.5212 34.8511 11.0043 34.5262L13.7838 32.6597C14.2674 32.3358 14.8598 32.217 15.4309 32.3292C16.0021 32.4414 16.5055 32.7755 16.8306 33.2583L17.0993 33.659C17.9431 33.0301 18.8081 32.3851 19.3078 31.9834C20.5413 30.5636 22.2615 29.657 24.13 29.442C25.9984 29.2271 27.8796 29.7194 29.4032 30.822H35.0292C35.544 30.8225 36.0468 30.9775 36.4725 31.2668C36.8983 31.5562 37.2274 31.9667 37.4174 32.4452L45.7387 27.9961C47.1411 27.2461 48.8465 27.7097 49.6206 29.0508C50.3263 30.2727 49.9424 31.8148 48.6652 32.8881L38.8769 41.1162C38.2026 41.6936 37.3419 42.0072 36.4542 41.999H22.7042L22.6817 42.0175C22.9042 42.4924 22.9495 43.0311 22.8096 43.5365C22.6696 44.0419 22.3535 44.4806 21.9184 44.7733L19.1384 46.6405C18.6548 46.9646 18.0624 47.0835 17.4911 46.9712C16.9199 46.8589 16.4165 46.5246 16.0916 46.0415L16.0918 46.0413Z"/>
</mask>
<path fill-rule="evenodd" clip-rule="evenodd" d="M19.5645 25.8413C19.5643 25.0132 19.7967 24.2017 20.2353 23.4992C20.674 22.7968 21.3011 22.2318 22.0453 21.8685C22.7895 21.5052 23.6207 21.3583 24.4444 21.4446C25.268 21.5309 26.0508 21.8468 26.7035 22.3564C26.5576 22.8644 26.4834 23.3903 26.4831 23.9189C26.4831 24.1009 26.4916 24.2841 26.5089 24.464C26.5206 24.5861 26.5679 24.7021 26.6451 24.7976C26.7222 24.893 26.8257 24.9636 26.9427 25.0006C27.4027 25.1466 27.8848 25.2715 28.3802 25.3765C28.3967 25.5308 28.4051 25.6858 28.4053 25.841V25.8543C26.9647 26.2456 25.4778 26.4401 23.985 26.4324C22.4922 26.4402 21.0052 26.2457 19.5646 25.8543V25.841L19.5645 25.8413ZM21.9795 18.1653C21.9795 17.7686 22.0971 17.3809 22.3174 17.0511C22.5378 16.7213 22.851 16.4642 23.2174 16.3124C23.5839 16.1606 23.9871 16.1209 24.3761 16.1983C24.7652 16.2756 25.1225 16.4666 25.403 16.7471C25.6835 17.0276 25.8745 17.3849 25.9519 17.7739C26.0293 18.163 25.9895 18.5662 25.8378 18.9326C25.686 19.2991 25.4289 19.6123 25.0991 19.8327C24.7693 20.0531 24.3816 20.1707 23.9849 20.1707C23.4532 20.1703 22.9433 19.9588 22.5673 19.5829C22.1913 19.2069 21.9799 18.697 21.9795 18.1653ZM32.1533 19.4984C30.9813 19.4998 29.8577 19.966 29.029 20.7948C28.2004 21.6236 27.7343 22.7472 27.733 23.9192V23.9324C29.1735 24.3238 30.6605 24.5183 32.1533 24.5105C33.6461 24.5183 35.1331 24.3238 36.5737 23.9324V23.9192C36.5724 22.7472 36.1063 21.6235 35.2776 20.7947C34.4489 19.966 33.3253 19.4997 32.1533 19.4984ZM30.1479 16.2432C30.1479 15.8465 30.2655 15.4588 30.4859 15.129C30.7062 14.7992 31.0194 14.5421 31.3859 14.3903C31.7523 14.2385 32.1556 14.1988 32.5446 14.2762C32.9336 14.3535 33.291 14.5445 33.5715 14.825C33.8519 15.1055 34.0429 15.4628 34.1203 15.8519C34.1977 16.2409 34.158 16.6441 34.0062 17.0106C33.8544 17.377 33.5973 17.6903 33.2675 17.9106C32.9377 18.131 32.5499 18.2486 32.1533 18.2486C31.6216 18.2479 31.1119 18.0364 30.736 17.6605C30.36 17.2845 30.1485 16.7748 30.1479 16.2432ZM40.3221 21.4206C41.4941 21.4219 42.6177 21.8881 43.4463 22.7169C44.275 23.5457 44.741 24.6693 44.7422 25.8413V25.8546C43.3016 26.246 41.8147 26.4405 40.3219 26.4327C38.8292 26.4404 37.3424 26.246 35.9019 25.8546V25.8413C35.9021 25.6862 35.9101 25.5312 35.9258 25.3768C36.422 25.2718 36.9033 25.1469 37.364 25.0009C37.4809 24.9639 37.5843 24.8933 37.6615 24.7979C37.7386 24.7026 37.786 24.5867 37.7978 24.4647C37.8148 24.285 37.8236 24.1016 37.8236 23.9192C37.8234 23.3906 37.7492 22.8647 37.6032 22.3567C38.3792 21.7492 39.3365 21.4197 40.322 21.4209L40.3221 21.4206ZM38.3167 18.1653C38.3166 17.7686 38.4342 17.3808 38.6546 17.0509C38.8749 16.7211 39.1881 16.464 39.5546 16.3121C39.9211 16.1603 40.3244 16.1206 40.7135 16.1979C41.1025 16.2753 41.4599 16.4663 41.7404 16.7468C42.021 17.0273 42.212 17.3847 42.2894 17.7738C42.3668 18.1628 42.327 18.5661 42.1752 18.9326C42.0234 19.2991 41.7663 19.6123 41.4365 19.8327C41.1066 20.0531 40.7188 20.1707 40.3221 20.1707C39.7904 20.1701 39.2807 19.9586 38.9048 19.5826C38.5288 19.2067 38.3173 18.697 38.3167 18.1653ZM18.7734 26.9231C20.3438 27.4203 22.1459 27.6831 23.9852 27.6831C25.8244 27.6831 27.6258 27.4203 29.1957 26.9231C29.3126 26.886 29.416 26.8154 29.4932 26.7201C29.5703 26.6247 29.6177 26.5088 29.6295 26.3868C29.6465 26.2071 29.6553 26.0237 29.6553 25.8413C29.6553 25.7591 29.6532 25.6769 29.6491 25.5947C30.4793 25.7057 31.3159 25.7612 32.1535 25.7609C32.991 25.7612 33.8276 25.7057 34.6577 25.5947C34.6543 25.6769 34.6525 25.7591 34.6521 25.8413C34.6521 26.0226 34.6606 26.2062 34.6779 26.3864C34.6896 26.5085 34.7369 26.6245 34.814 26.7199C34.891 26.8153 34.9945 26.886 35.1114 26.9231C36.6811 27.4203 38.4834 27.6831 40.3224 27.6831C42.1613 27.6831 43.9638 27.4203 45.5333 26.9231C45.6502 26.886 45.7536 26.8154 45.8307 26.7201C45.9078 26.6247 45.9552 26.5088 45.967 26.3868C45.9841 26.2071 45.9929 26.0237 45.9929 25.8413C45.9916 24.7181 45.6573 23.6206 45.0322 22.6875C44.4071 21.7544 43.5193 21.0276 42.4811 20.5991C42.9754 20.1611 43.3248 19.583 43.4828 18.9417C43.6409 18.3004 43.6001 17.6262 43.3659 17.0087C43.1317 16.3911 42.7151 15.8594 42.1716 15.4841C41.6281 15.1089 40.9833 14.9078 40.3228 14.9077C39.6623 14.9076 39.0174 15.1084 38.4738 15.4835C37.9301 15.8585 37.5134 16.3901 37.279 17.0076C37.0446 17.625 37.0035 18.2992 37.1613 18.9406C37.3191 19.5819 37.6683 20.1601 38.1624 20.5983C37.7924 20.7505 37.4396 20.9416 37.1102 21.1686C36.4848 20.0467 35.4989 19.1687 34.3123 18.677C34.8066 18.2389 35.1559 17.6608 35.3139 17.0195C35.4719 16.3782 35.4311 15.7039 35.1968 15.0864C34.9625 14.4688 34.5459 13.9371 34.0023 13.562C33.4587 13.1868 32.8138 12.9858 32.1533 12.9858C31.4928 12.9858 30.848 13.1868 30.3044 13.562C29.7608 13.9371 29.3442 14.4688 29.1099 15.0864C28.8756 15.7039 28.8348 16.3782 28.9927 17.0195C29.1507 17.6608 29.5001 18.2389 29.9944 18.677C28.8082 19.169 27.8227 20.0469 27.1975 21.1686C26.8675 20.9418 26.5144 20.7506 26.1441 20.5983C26.6381 20.1601 26.9872 19.5819 27.1448 18.9406C27.3025 18.2993 27.2614 17.6253 27.027 17.0079C26.7925 16.3905 26.3758 15.859 25.8322 15.4841C25.2886 15.1091 24.6437 14.9084 23.9833 14.9086C23.3229 14.9087 22.6782 15.1098 22.1348 15.485C21.5913 15.8603 21.1749 16.3919 20.9408 17.0094C20.7066 17.6269 20.6658 18.301 20.8239 18.9422C20.9819 19.5835 21.3312 20.1614 21.8255 20.5994C20.7874 21.0281 19.8998 21.7549 19.2749 22.688C18.6499 23.6211 18.3156 24.7186 18.3144 25.8416C18.3144 26.024 18.3233 26.2072 18.3402 26.3871C18.3519 26.5091 18.3991 26.625 18.4761 26.7203C18.5531 26.8157 18.6565 26.8863 18.7733 26.9234L18.7734 26.9231ZM11.7016 35.5637L14.4807 33.6975C14.6891 33.5585 14.944 33.5075 15.1898 33.5558C15.4356 33.6041 15.6523 33.7478 15.7925 33.9554L21.4793 42.4234C21.619 42.6317 21.6703 42.8869 21.622 43.133C21.5736 43.3791 21.4296 43.5959 21.2215 43.7359L18.4421 45.6023C18.2338 45.7419 17.9786 45.7931 17.7326 45.7448C17.4865 45.6964 17.2697 45.5525 17.1296 45.3445L11.4435 36.8757C11.3039 36.6674 11.2526 36.4122 11.301 36.1662C11.3493 35.9201 11.4933 35.7033 11.7013 35.5632L11.7016 35.5637ZM17.809 34.6897L17.7972 34.6982L22.002 40.9593L22.0863 40.89C22.198 40.7991 22.3375 40.7494 22.4815 40.7493H36.4542C37.0484 40.7608 37.6254 40.5506 38.073 40.1597L47.8613 31.9317C48.4761 31.4149 49.0224 30.5141 48.5388 29.6763C48.1034 28.9222 47.1325 28.6685 46.3284 29.0988L37.5692 33.7819C37.4753 34.3884 37.1677 34.9413 36.702 35.3409C36.2362 35.7404 35.643 35.9604 35.0293 35.961H29.1966C29.0308 35.961 28.8718 35.8951 28.7546 35.7779C28.6374 35.6607 28.5716 35.5017 28.5716 35.336C28.5716 35.1702 28.6374 35.0113 28.7546 34.894C28.8718 34.7768 29.0308 34.711 29.1966 34.711H35.0293C35.2034 34.7123 35.3761 34.6792 35.5374 34.6135C35.6986 34.5478 35.8453 34.4508 35.9689 34.3281C36.0925 34.2055 36.1906 34.0596 36.2576 33.8988C36.3245 33.738 36.359 33.5656 36.359 33.3915C36.359 33.2174 36.3245 33.0449 36.2576 32.8842C36.1906 32.7234 36.0925 32.5775 35.9689 32.4549C35.8453 32.3322 35.6986 32.2352 35.5374 32.1695C35.3761 32.1038 35.2034 32.0707 35.0293 32.072H29.1966C29.0589 32.0721 28.9251 32.0268 28.8159 31.943C27.5408 30.9631 25.9382 30.5099 24.3387 30.6769C22.7393 30.844 21.2649 31.6186 20.2199 32.8408C20.195 32.87 20.1675 32.8968 20.1377 32.9208C19.6184 33.3407 18.6988 34.0263 17.809 34.6897ZM16.0918 46.0413L10.405 37.5731C10.081 37.0894 9.96208 36.4969 10.0744 35.9257C10.1868 35.3545 10.5212 34.8511 11.0043 34.5262L13.7838 32.6597C14.2674 32.3358 14.8598 32.217 15.4309 32.3292C16.0021 32.4414 16.5055 32.7755 16.8306 33.2583L17.0993 33.659C17.9431 33.0301 18.8081 32.3851 19.3078 31.9834C20.5413 30.5636 22.2615 29.657 24.13 29.442C25.9984 29.2271 27.8796 29.7194 29.4032 30.822H35.0292C35.544 30.8225 36.0468 30.9775 36.4725 31.2668C36.8983 31.5562 37.2274 31.9667 37.4174 32.4452L45.7387 27.9961C47.1411 27.2461 48.8465 27.7097 49.6206 29.0508C50.3263 30.2727 49.9424 31.8148 48.6652 32.8881L38.8769 41.1162C38.2026 41.6936 37.3419 42.0072 36.4542 41.999H22.7042L22.6817 42.0175C22.9042 42.4924 22.9495 43.0311 22.8096 43.5365C22.6696 44.0419 22.3535 44.4806 21.9184 44.7733L19.1384 46.6405C18.6548 46.9646 18.0624 47.0835 17.4911 46.9712C16.9199 46.8589 16.4165 46.5246 16.0916 46.0415L16.0918 46.0413Z" stroke="#3173B0" stroke-width="8" mask="url(#path-1-inside-1_10_218)"/>
</svg>
