<svg width="50" height="60" viewBox="0 0 50 60" fill="none" xmlns="http://www.w3.org/2000/svg">
<g clip-path="url(#clip0_1_741)">
<mask id="mask0_1_741" style="mask-type:luminance" maskUnits="userSpaceOnUse" x="0" y="10" width="40" height="40">
<path d="M39.4999 49.5V10.5001H0.499999V49.5H39.4999Z" fill="white" stroke="white" stroke-width="0.999997"/>
</mask>
<g mask="url(#mask0_1_741)">
<path d="M39.2186 32.6563V27.3438C39.2186 26.9123 38.8689 26.5626 38.4374 26.5626H35.5141C35.1154 24.7506 34.4003 23.0232 33.4018 21.4595L35.4679 19.3935C35.7729 19.0884 35.7729 18.5938 35.4679 18.2886L31.7114 14.5321C31.4062 14.2271 30.9116 14.2271 30.6065 14.5321L28.5405 16.5982C26.9768 15.5997 25.2494 14.8846 23.4374 14.4859V11.5626C23.4374 11.1311 23.0877 10.7814 22.6562 10.7814H17.3437C16.9122 10.7814 16.5625 11.1311 16.5625 11.5626V14.4902C14.753 14.8908 13.0282 15.607 11.4671 16.6059L9.39341 14.5321C9.08826 14.2271 8.59365 14.2271 8.28849 14.5321L4.53202 18.2886C4.22694 18.5938 4.22694 19.0884 4.53202 19.3935L6.6103 21.4718C5.61573 23.0322 4.90332 24.7554 4.50561 26.5626H1.5625C1.13101 26.5626 0.78125 26.9123 0.78125 27.3438V32.6563C0.78125 33.0878 1.13101 33.4375 1.5625 33.4375H4.50991C4.90954 35.2423 5.62306 36.9628 6.61795 38.5207L4.53202 40.6066C4.22694 40.9117 4.22694 41.4064 4.53202 41.7115L8.28849 45.468C8.59365 45.7731 9.08826 45.7731 9.39341 45.468L11.4793 43.382C13.0372 44.3769 14.7577 45.0905 16.5625 45.4901V48.4375C16.5625 48.869 16.9122 49.2188 17.3437 49.2188H22.6562C23.0877 49.2188 23.4374 48.869 23.4374 48.4375V45.4944C25.2446 45.0967 26.9678 44.3843 28.5282 43.3897L30.6065 45.468C30.9116 45.7731 31.4062 45.7731 31.7114 45.468L35.4679 41.7115C35.7729 41.4064 35.7729 40.9117 35.4679 40.6066L33.3941 38.5329C34.393 36.9718 35.1092 35.247 35.5098 33.4375H38.4374C38.8689 33.4375 39.2186 33.0878 39.2186 32.6563Z" stroke="#3173B0" stroke-width="2" stroke-miterlimit="10" stroke-linecap="round" stroke-linejoin="round"/>
<path d="M29.5082 25.2519C31.4955 29.2302 30.8305 34.1955 27.513 37.513C23.3637 41.6623 16.6363 41.6623 12.487 37.513C8.33771 33.3638 8.33771 26.6364 12.487 22.4871C15.9294 19.0447 21.1463 18.4582 25.1933 20.7277" stroke="#3173B0" stroke-width="2" stroke-miterlimit="10" stroke-linecap="round" stroke-linejoin="round"/>
<path d="M23.2409 25.026L18.8974 29.3694L16.759 27.231L13.9568 30.0333L16.0952 32.1717L18.8974 34.9739L26.043 27.8283L23.2409 25.026Z" stroke="#3173B0" stroke-width="2" stroke-miterlimit="10" stroke-linecap="round" stroke-linejoin="round"/>
</g>
</g>
<defs>
<clipPath id="clip0_1_741">
<rect width="40" height="40" fill="white" transform="translate(0 10)"/>
</clipPath>
</defs>
</svg>
