<svg width="60" height="60" viewBox="0 0 60 60" fill="none" xmlns="http://www.w3.org/2000/svg">
<path d="M34.1079 30.1719C34.1287 29.8998 34.1319 29.6263 34.1174 29.3531L36.3831 24.8207C36.3793 24.8732 36.3773 24.9261 36.3773 24.9795C36.3773 26.1788 37.3499 27.1514 38.5492 27.1514H43.8071C45.0075 27.1514 45.9789 26.1784 45.9789 24.9795C45.9789 23.7797 45.007 22.8077 43.807 22.8077H38.5492C37.8832 22.8077 37.287 23.1075 36.8885 23.5797C37.0118 23.0965 37.0516 22.6045 37.0141 22.1224C37.4072 22.5151 37.95 22.7578 38.5492 22.7578H43.8071C45.0071 22.7578 45.9789 21.7858 45.9789 20.5859C45.9789 19.3871 45.0074 18.4141 43.807 18.4141H38.5492C37.4836 18.4141 36.597 19.182 36.4126 20.1943C35.9855 19.4605 35.3467 18.8386 34.5305 18.43L34.53 18.4298C34.485 18.4073 34.4399 18.3857 34.3946 18.3648H43.8071C45.0074 18.3648 45.9789 17.3919 45.9789 16.193C45.9789 14.994 45.0072 14.0211 43.807 14.0211H31.2555C30.0551 14.0211 29.0836 14.9942 29.0836 16.193C29.0836 17.2215 29.7988 18.084 30.7602 18.3081C29.7998 18.7114 28.9733 19.4463 28.4713 20.4494L28.4711 20.4499L27.4838 22.4252C27.3794 22.3733 27.2748 22.3213 27.1701 22.2693C26.7993 22.0849 26.4275 21.9 26.0625 21.7186V13.682C26.0625 12.2008 27.2631 11 28.7445 11H46.318C47.7991 11 49 12.2009 49 13.682V27.4899C49 28.971 47.7991 30.1719 46.3181 30.1719H40.4148H38.9822L39.4761 31.5166L43.9682 43.7486L43.9684 43.7491C43.9902 43.8084 43.9812 43.8587 43.9488 43.9044C43.9135 43.9541 43.8628 43.9795 43.8077 43.9795C43.7347 43.9795 43.6703 43.9342 43.6455 43.8669L38.8568 30.8271L38.6162 30.1719H37.9181H37.0969H36.3965L36.1571 30.8301L31.4165 43.866L31.416 43.8672C31.3917 43.9344 31.3275 43.9795 31.2555 43.9795C31.2105 43.9795 31.1849 43.9694 31.1694 43.9608C31.1517 43.951 31.1331 43.9351 31.1171 43.9109C31.0814 43.8574 31.0766 43.7955 31.0935 43.749L31.0936 43.7488L35.5431 31.5136L36.031 30.1719H34.6033H34.1079Z" stroke="#3173B0" stroke-width="2"/>
<path d="M29.6725 30.3462L29.6725 30.3462C29.8141 29.9313 29.8137 29.4975 29.6931 29.0987L29.578 28.7178L29.7559 28.362L32.6642 22.5461C32.7069 22.4607 32.672 22.3575 32.5876 22.3153L32.5871 22.3151C32.503 22.273 32.3996 22.3068 32.3568 22.3922C32.3568 22.3922 32.3568 22.3922 32.3568 22.3923L29.8764 27.3525L29.4298 28.2454L28.5362 27.8004C27.345 27.2072 25.6566 26.3676 24.0975 25.5922C23.7166 25.4028 23.3434 25.2172 22.9871 25.04C22.7794 24.9367 22.5826 24.8371 22.3942 24.7417C20.9867 24.0289 20.0453 23.5522 18.4836 23.5522H17.4481V22.5522V21.5522C18.7348 21.5522 19.8825 20.9613 20.6357 20.0326L20.6365 20.0315C21.2101 19.3263 21.5525 18.4292 21.5525 17.4484C21.5525 15.1812 19.7151 13.3438 17.4475 13.3438C15.1813 13.3438 13.3438 15.1811 13.3438 17.4484C13.3438 18.5376 13.7668 19.5254 14.4592 20.2603L14.4599 20.261C15.2086 21.0572 16.2694 21.5522 17.4472 21.5525C17.4473 21.5525 17.4473 21.5525 17.4474 21.5525L17.4472 23.5525C17.4471 23.5525 17.447 23.5525 17.447 23.5525C15.7483 23.5526 14.0839 24.243 12.8912 25.4388L12.8894 25.4407C11.6701 26.6568 11 28.2725 11 30.0003V33.7659C11 34.9437 11.7651 35.9511 12.8295 36.3094L13.5104 36.5386V37.2571V43.8073C13.5104 43.9024 13.5872 43.9792 13.6823 43.9792H21.2134C21.3084 43.9792 21.3852 43.9024 21.3852 43.8073V30.6406V29.0227L22.8324 29.7462L22.8436 29.7518C23.9533 30.3065 25.4071 31.0332 26.5842 31.6221L29.6725 30.3462ZM29.6725 30.3462L29.6702 30.3531M29.6725 30.3462L29.6702 30.3531M29.6702 30.3531L29.6669 30.3629C29.6667 30.3635 29.6665 30.3642 29.6663 30.3648C29.4639 30.9618 29.0102 31.4462 28.4165 31.6911M29.6702 30.3531L28.4165 31.6911M28.4165 31.6911C27.8197 31.9332 27.1535 31.9065 26.5845 31.6222L28.4165 31.6911Z" stroke="#3173B0" stroke-width="2"/>
</svg>
